<?xml version="1.0" encoding="UTF-8" standalone="no"?>
<!-- Created with Inkscape (http://www.inkscape.org/) -->

<svg
   xmlns:dc="http://purl.org/dc/elements/1.1/"
   xmlns:cc="http://creativecommons.org/ns#"
   xmlns:rdf="http://www.w3.org/1999/02/22-rdf-syntax-ns#"
   xmlns:svg="http://www.w3.org/2000/svg"
   xmlns="http://www.w3.org/2000/svg"
   xmlns:sodipodi="http://sodipodi.sourceforge.net/DTD/sodipodi-0.dtd"
   xmlns:inkscape="http://www.inkscape.org/namespaces/inkscape"
   width="89.999939"
   height="77.138794"
   viewBox="0 0 89.999933 77.138794"
   id="BusinessPolicy"
   version="1.1"
   inkscape:version="0.91 r13725"
   sodipodi:docname="BusinessPolicy.svg">
  <defs
     id="defs4180" />
  <sodipodi:namedview
     id="base"
     pagecolor="#ffffff"
     bordercolor="#666666"
     borderopacity="1.0"
     inkscape:pageopacity="0.0"
     inkscape:pageshadow="2"
     inkscape:zoom="7.919596"
     inkscape:cx="-20.38615"
     inkscape:cy="18.240768"
     inkscape:document-units="px"
     inkscape:current-layer="BusinessPolicy"
     showgrid="false"
     inkscape:window-width="2560"
     inkscape:window-height="1384"
     inkscape:window-x="-4"
     inkscape:window-y="-4"
     inkscape:window-maximized="1"
     fit-margin-top="0"
     fit-margin-left="0"
     fit-margin-right="0"
     fit-margin-bottom="0"
     units="px" />
  <metadata
     id="metadata4183">
    <rdf:RDF>
      <cc:Work
         rdf:about="">
        <dc:format>image/svg+xml</dc:format>
        <dc:type
           rdf:resource="http://purl.org/dc/dcmitype/StillImage" />
        <dc:title></dc:title>
      </cc:Work>
    </rdf:RDF>
  </metadata>
  <g
     inkscape:label="Calque 1"
     inkscape:groupmode="layer"
     id="layer1"
     transform="translate(-179.42689,-200.41465)">
    <g
       id="inside"
       transform="matrix(0.55419475,0,0,0.44722614,77.31662,118.21014)"
       inkscape:transform-center-x="21.018918"
       inkscape:transform-center-y="-41.5761"
       style="fill:#262626;fill-opacity:1;stroke:none">
      <path
         style="fill:#262626;fill-opacity:1;stroke:none;stroke-width:0.98884398;stroke-linecap:square;stroke-linejoin:miter;stroke-miterlimit:3.20000005;stroke-dasharray:none;stroke-opacity:1"
         d="m 268.50727,220.65829 c -3.44909,0 -6.22435,2.61919 -6.22435,5.86993 0,3.25075 2.77526,5.86539 6.22435,5.86539 l 58.18192,0 c 3.4491,0 6.22437,-2.61464 6.22437,-5.86539 0,-3.25074 -2.77527,-5.86993 -6.22437,-5.86993 l -58.18192,0 z m 0,23.16121 c -3.44909,0 -6.22435,2.61919 -6.22435,5.86994 0,3.25074 2.77526,5.86538 6.22435,5.86538 l 58.18192,0 c 3.4491,0 6.22437,-2.61464 6.22437,-5.86538 0,-3.25075 -2.77527,-5.86994 -6.22437,-5.86994 l -58.18192,0 z m 0,22.43771 c -3.44909,0 -6.22435,2.61463 -6.22435,5.86538 0,3.25075 2.77526,5.86993 6.22435,5.86993 l 58.18192,0 c 3.4491,0 6.22437,-2.61918 6.22437,-5.86993 0,-3.25075 -2.77527,-5.86538 -6.22437,-5.86538 l -58.18192,0 z"
         id="rect4778"
         inkscape:connector-curvature="0" />
    </g>
    <path
       style="opacity:0.85;fill:#ff0000;fill-opacity:1;fill-rule:nonzero;stroke:none;stroke-width:0.60000002;stroke-linecap:round;stroke-linejoin:miter;stroke-miterlimit:4;stroke-dasharray:none;stroke-dashoffset:0;stroke-opacity:1"
       id="path4202"
       sodipodi:type="arc"
       sodipodi:cx="203.08762"
       sodipodi:cy="230.05344"
       sodipodi:rx="13.660714"
       sodipodi:ry="13.035714"
       sodipodi:start="0.84005664"
       sodipodi:end="0.66377315"
       sodipodi:open="true"
       d="m 212.20506,239.76088 a 13.660714,13.035714 0 0 1 -18.87876,-0.58791 13.660714,13.035714 0 0 1 -0.21623,-18.02343 13.660714,13.035714 0 0 1 18.8597,-1.00019 13.660714,13.035714 0 0 1 1.87802,17.9353" />
  </g>
  <path
     inkscape:connector-curvature="0"
     d="m 65.096796,76.094859 c -0.815321,0 -1.622831,-0.245883 -2.276714,-0.751928 L 38.985377,63.98634 l -31.2763149,0 c -4.6986899,0 -6.6725098,-3.497409 -6.6651066,-8.032517 L 1.123995,6.9321314 C 1.1313457,2.4172699 2.7611599,1.0118467 7.4689491,1.0445285 L 82.423852,1.5648711 c 4.758,0.03303 6.532147,0.7126299 6.532147,5.2185909 l 0,48.947509 c 0,4.535113 -1.934089,8.255369 -6.692226,8.255369 l -13.620353,0 0,8.739487 c 0,1.292409 -0.781697,2.48973 -2.035073,3.046459 -0.487672,0.216455 -0.992318,0.322573 -1.511551,0.322573 z"
     id="Contorno"
     sodipodi:nodetypes="sccsssssssscscs"
     style="opacity:0.85;fill:none;stroke:#000000;stroke-width:2.08787608;stroke-miterlimit:3.20000005;stroke-dasharray:none;stroke-opacity:1" />
  <path
     style="opacity:0.85;fill:none;stroke:none;stroke-width:2.08787608;stroke-miterlimit:3.20000005;stroke-dasharray:none;stroke-opacity:1"
     d="M 64.955842,76.140966 58.922515,73.59911 38.844419,64.032443 7.3415933,63.986213 3.1128316,62.24295 1.006999,56.872695 0.94036086,33.110227 1.0639589,6.2894354 3.636532,1.7149456 l 8.777282,-0.5890061 70.79186,0.5446749 5.071059,2.1870406 0.538291,10.36968 -0.05398,42.00894 -2.913963,6.5705 -4.649002,1.225671 -12.695633,0 -0.141724,9.682442 z"
     id="PapyrusPath"
     inkscape:connector-curvature="0"
     sodipodi:nodetypes="ccccccccccccccccccc" />
</svg>
