<?xml version="1.0" encoding="UTF-8" standalone="no"?>
<svg
   xmlns:osb="http://www.openswatchbook.org/uri/2009/osb"
   xmlns:dc="http://purl.org/dc/elements/1.1/"
   xmlns:cc="http://creativecommons.org/ns#"
   xmlns:rdf="http://www.w3.org/1999/02/22-rdf-syntax-ns#"
   xmlns:svg="http://www.w3.org/2000/svg"
   xmlns="http://www.w3.org/2000/svg"
   xmlns:sodipodi="http://sodipodi.sourceforge.net/DTD/sodipodi-0.dtd"
   xmlns:inkscape="http://www.inkscape.org/namespaces/inkscape"
   height="93.872681"
   id="Layer_1"
   version="1.1"
   viewBox="0 0 101.77681 93.872681"
   width="101.7768"
   xml:space="preserve"
   inkscape:version="0.91 r13725"
   sodipodi:docname="ExternalInfluencer.svg"><metadata
     id="metadata9"><rdf:RDF><cc:Work
         rdf:about=""><dc:format>image/svg+xml</dc:format><dc:type
           rdf:resource="http://purl.org/dc/dcmitype/StillImage" /><dc:title></dc:title></cc:Work></rdf:RDF></metadata><defs
     id="defs7"><linearGradient
       id="linearGradient5598"
       osb:paint="solid"><stop
         style="stop-color:#ff0000;stop-opacity:1;"
         offset="0"
         id="stop5600" /></linearGradient><linearGradient
       id="linearGradient4145"
       osb:paint="solid"><stop
         style="stop-color:#000000;stop-opacity:1;"
         offset="0"
         id="stop4147" /></linearGradient><linearGradient
       id="linearGradient5624"
       osb:paint="solid"><stop
         style="stop-color:#000000;stop-opacity:1;"
         offset="0"
         id="stop5626" /></linearGradient></defs><sodipodi:namedview
     pagecolor="#ffffff"
     bordercolor="#666666"
     borderopacity="1"
     objecttolerance="10"
     gridtolerance="10"
     guidetolerance="10"
     inkscape:pageopacity="0"
     inkscape:pageshadow="2"
     inkscape:window-width="2560"
     inkscape:window-height="1384"
     id="namedview5"
     showgrid="false"
     inkscape:zoom="4.9814089"
     inkscape:cx="41.739711"
     inkscape:cy="42.996087"
     inkscape:window-x="-4"
     inkscape:window-y="-4"
     inkscape:window-maximized="1"
     inkscape:current-layer="Layer_1"
     fit-margin-top="0"
     fit-margin-left="0"
     fit-margin-right="0"
     fit-margin-bottom="0" /><path
     style="fill:#ff0000;fill-opacity:1;stroke:none;stroke-width:1;stroke-linecap:round;stroke-linejoin:round;stroke-miterlimit:3.20000005;stroke-dasharray:none;stroke-dashoffset:0;stroke-opacity:1"
     d="M 12.176735,65.255371 8.2325596,62.407438 8.6762205,62.046399 c 1.4612125,-1.189096 6.2372285,-3.93289 9.3918885,-5.39559 19.108589,-8.859943 44.031962,-9.014607 63.241361,-0.392446 3.410811,1.530946 8.663418,4.493482 10.289717,5.803527 l 0.42691,0.343895 -3.485488,2.520723 c -1.917016,1.386397 -3.702971,2.671173 -3.968785,2.855057 l -0.483299,0.334333 -0.905824,-0.610976 C 75.782665,62.513625 66.748886,59.385945 56.587576,58.297146 53.676232,57.985191 45.764835,58.032814 42.861053,58.37977 33.061189,59.550707 24.4487,62.535427 17.538598,67.15545 l -1.417688,0.947851 -3.944175,-2.847933 z"
     id="path4136"
     inkscape:connector-curvature="0"
     inkscape:export-xdpi="14.470616"
     inkscape:export-ydpi="14.470616"
     inkscape:export-filename="C:\Users\MA244259\wsMarsR\org.eclipse.papyrus.bmm.diagram.common\icons\ExternalInfluencer.png" /><path
     style="fill:#ff0000;fill-opacity:1;stroke:none;stroke-width:1;stroke-linecap:round;stroke-linejoin:round;stroke-miterlimit:3.20000005;stroke-dasharray:none;stroke-dashoffset:0;stroke-opacity:1"
     d="m 26.603944,75.711232 c -2.024472,-1.472722 -3.764581,-2.761328 -3.866911,-2.863566 -0.145783,-0.145652 0.07001,-0.355404 0.996898,-0.969007 5.764909,-3.816381 12.996082,-6.270476 21.044233,-7.141935 2.602864,-0.281839 8.65221,-0.237875 11.349305,0.08249 4.07745,0.484315 8.382236,1.489859 11.912651,2.782648 2.089642,0.765197 6.419816,2.924597 8.23512,4.106743 l 1.513446,0.985572 -3.583927,2.600838 c -1.971157,1.430461 -3.772721,2.724506 -4.003473,2.875659 l -0.419553,0.274819 -1.190822,-0.763094 c -3.650588,-2.33934 -8.246061,-3.990758 -13.153603,-4.726846 -2.284427,-0.342645 -7.858775,-0.390538 -10.045667,-0.0863 -2.373772,0.330228 -5.014973,0.927817 -6.978288,1.578885 -2.094199,0.69447 -5.322412,2.223878 -6.886001,3.26233 -0.58189,0.386459 -1.099509,0.697209 -1.150266,0.690554 -0.05076,-0.0067 -1.748673,-1.217056 -3.773142,-2.68978 z"
     id="path4138"
     inkscape:connector-curvature="0"
     inkscape:export-xdpi="14.470616"
     inkscape:export-ydpi="14.470616"
     inkscape:export-filename="" /><path
     style="fill:#ff0000;fill-opacity:1;stroke:none;stroke-width:1;stroke-linecap:round;stroke-linejoin:round;stroke-miterlimit:3.20000005;stroke-dasharray:none;stroke-dashoffset:0;stroke-opacity:1"
     d="m 48.575879,92.848313 c -1.848671,-0.611145 -3.322995,-1.913739 -4.155903,-3.671827 -0.444222,-0.937652 -0.485341,-1.154381 -0.485341,-2.558134 0,-1.408156 0.04028,-1.618724 0.492102,-2.572585 1.355957,-2.862614 4.588602,-4.438315 7.743931,-3.774653 1.992719,0.419129 3.920832,1.918036 4.810889,3.739965 0.414292,0.84805 0.449548,1.052769 0.449548,2.610497 0,1.594722 -0.028,1.747145 -0.495125,2.696023 -0.665985,1.35281 -1.826844,2.488163 -3.242983,3.171729 -1.026808,0.495638 -1.273711,0.550639 -2.683957,0.597883 -1.218147,0.04081 -1.742927,-0.0107 -2.433161,-0.238898 z"
     id="path4140"
     inkscape:connector-curvature="0"
     inkscape:export-xdpi="14.470616"
     inkscape:export-ydpi="14.470616"
     inkscape:export-filename="" /><path
     d="m 99.776823,0.49355689 c 0,12.51185711 -4.772897,25.02371311 -14.318689,34.56950511 -19.091591,19.091591 -50.047422,19.091591 -69.139012,0 C 11.545937,30.289877 7.9661209,24.775321 5.5796185,18.890096 3.1931161,13.004871 1.9999279,6.7489794 2,0.49312339"
     id="semiCirculo"
     inkscape:connector-curvature="0"
     sodipodi:nodetypes="csssc"
     inkscape:export-xdpi="14.470616"
     inkscape:export-ydpi="14.470616"
     style="fill:#cccccc;stroke:#000000;stroke-width:4.00000048;stroke-miterlimit:4;stroke-dasharray:none;stroke-opacity:1"
     inkscape:export-filename="" /><path
     style="opacity:0.07000002;fill:#000000;fill-opacity:1;fill-rule:nonzero;stroke:#000000;stroke-width:0.60000002;stroke-linecap:round;stroke-linejoin:miter;stroke-miterlimit:4;stroke-dasharray:none;stroke-dashoffset:0;stroke-opacity:1"
     d="m 5.59589,0.18623471 45.408852,-0.003587 45.40795,0.0323725 4.272698,2.95734239 0.74946,5.3929109 0.004,40.3117915 -0.0324,40.310889 -2.957336,4.272696 -5.39291,0.749465 -44.017269,0.0036 L 5.022161,94.18133 0.74946593,91.223988 -1.4807668e-8,85.831076 -0.00359012,45.519285 0.02878548,5.2083958 1.849912,1.6300849 Z"
     id="PapyrusPath"
     inkscape:connector-curvature="0"
     sodipodi:nodetypes="ccccccccccccccccc" /></svg>