<?xml version="1.0" encoding="UTF-8" standalone="no"?>
<!-- Generator: Adobe Illustrator 16.0.0, SVG Export Plug-In . SVG Version: 6.00 Build 0)  -->

<svg
   xmlns:dc="http://purl.org/dc/elements/1.1/"
   xmlns:cc="http://creativecommons.org/ns#"
   xmlns:rdf="http://www.w3.org/1999/02/22-rdf-syntax-ns#"
   xmlns:svg="http://www.w3.org/2000/svg"
   xmlns="http://www.w3.org/2000/svg"
   xmlns:sodipodi="http://sodipodi.sourceforge.net/DTD/sodipodi-0.dtd"
   xmlns:inkscape="http://www.inkscape.org/namespaces/inkscape"
   version="1.1"
   id="Capa_1"
   x="0px"
   y="0px"
   width="100.00017"
   height="100.00089"
   viewBox="0 0 100.00017 100.00089"
   xml:space="preserve"
   inkscape:version="0.91 r13725"
   sodipodi:docname="Objective.svg"><metadata
     id="metadata51"><rdf:RDF><cc:Work
         rdf:about=""><dc:format>image/svg+xml</dc:format><dc:type
           rdf:resource="http://purl.org/dc/dcmitype/StillImage" /><dc:title></dc:title></cc:Work></rdf:RDF></metadata><defs
     id="defs49" /><sodipodi:namedview
     pagecolor="#ffffff"
     bordercolor="#666666"
     borderopacity="1"
     objecttolerance="10"
     gridtolerance="10"
     guidetolerance="10"
     inkscape:pageopacity="0"
     inkscape:pageshadow="2"
     inkscape:window-width="2560"
     inkscape:window-height="1384"
     id="namedview47"
     showgrid="false"
     inkscape:zoom="2.2912621"
     inkscape:cx="-30.489471"
     inkscape:cy="57.439095"
     inkscape:window-x="-4"
     inkscape:window-y="-4"
     inkscape:window-maximized="1"
     inkscape:current-layer="Capa_1"
     fit-margin-top="0"
     fit-margin-left="0"
     fit-margin-right="0"
     fit-margin-bottom="0" /><g
     id="g3"
     style="fill:#5aa02c"
     transform="translate(-156,-156)"><g
       id="g5"
       style="fill:#5aa02c"
       transform="matrix(0.24271845,0,0,0.24271845,156,156)"><g
         id="g7"
         style="fill:#5aa02c"><path
           d="M 206,0 C 92.411,0 0,92.411 0,206 0,319.589 92.411,412 206,412 319.589,412 412,319.589 412,206 412,92.411 319.589,0 206,0 Z m 0,380 C 110.056,380 32,301.943 32,206 32,110.056 110.056,32 206,32 c 95.944,0 174,78.056 174,174 0,95.943 -78.056,174 -174,174 z"
           id="path4174"
           inkscape:connector-curvature="0"
           style="fill:#5aa02c" /><path
           d="m 206,80 c -69.477,0 -126,56.523 -126,126 0,69.477 56.523,126 126,126 23.45,0 45.42,-6.447 64.243,-17.65 l -8.818,-9.138 c -0.955,2.227 -2.335,4.222 -4.096,5.92 -3.415,3.298 -7.922,5.119 -12.684,5.119 -7.452,-0.022 -14.061,-4.458 -16.885,-11.3 l -2.833,-6.866 C 218.812,299.34 212.482,300 206,300 c -51.832,0 -94,-42.168 -94,-94 0,-51.832 42.168,-94 94,-94 51.832,0 94,42.168 94,94 0,7.398 -0.862,14.598 -2.486,21.508 l 7.137,3.246 c 6.743,3.071 10.938,9.835 10.692,17.235 -0.241,7.331 -4.801,13.759 -11.632,16.418 l 8.691,9.008 C 324.806,253.908 332,230.779 332,206 332,136.523 275.477,80 206,80 Z"
           id="path11"
           style="fill:#5aa02c"
           inkscape:connector-curvature="0" /><path
           d="m 206.836,188.056 c 2.619,0 5.157,0.549 7.543,1.63 l 29.5,13.421 C 242.398,183.473 226.012,168 206,168 c -20.987,0 -38,17.013 -38,38 0,19.822 15.18,36.092 34.548,37.837 l -12.602,-30.546 c -2.879,-6.977 -1.229,-14.873 4.205,-20.114 3.413,-3.299 7.922,-5.121 12.685,-5.121 z"
           id="path13"
           style="fill:#5aa02c"
           inkscape:connector-curvature="0" /><path
           d="m 278.439,258.434 21.138,-7.991 c 1.232,-0.47 2.065,-1.632 2.109,-2.951 0.046,-1.318 -0.711,-2.534 -1.912,-3.082 l -90.251,-41.06 c -1.223,-0.554 -2.657,-0.307 -3.624,0.625 -0.965,0.931 -1.264,2.356 -0.752,3.597 l 37.815,91.657 c 0.503,1.222 1.69,2.021 3.011,2.022 0.867,0.002 1.681,-0.339 2.279,-0.917 0.314,-0.303 0.57,-0.669 0.745,-1.088 l 8.741,-20.84 32.472,33.649 c 1.252,1.3 3.321,1.336 4.621,0.082 l 15.995,-15.435 c 1.299,-1.254 1.336,-3.323 0.081,-4.621 l -32.468,-33.647 z"
           id="path15"
           style="fill:#5aa02c"
           inkscape:connector-curvature="0" /></g></g></g><path
     id="PapyrusPath"
     style="fill:none;fill-opacity:1;stroke:none;stroke-width:1;stroke-opacity:1"
     d="M 50.00017,0.50089 30.75095,4.39699 15.01475,15.01548 4.39627,30.75167 0.50017,50.00089 4.39627,69.25011 15.01475,84.98631 30.75095,95.6048 50.00017,99.50089 69.24939,95.6048 84.98559,84.98631 95.60408,69.25011 99.50017,50.00089 95.60408,30.75167 84.98559,15.01548 69.24939,4.39699 Z"
     inkscape:connector-curvature="0"
     sodipodi:nodetypes="ccccccccccccccccc" /></svg>