<?xml version="1.0" encoding="UTF-8" standalone="no"?>
<svg
   xmlns:dc="http://purl.org/dc/elements/1.1/"
   xmlns:cc="http://creativecommons.org/ns#"
   xmlns:rdf="http://www.w3.org/1999/02/22-rdf-syntax-ns#"
   xmlns:svg="http://www.w3.org/2000/svg"
   xmlns="http://www.w3.org/2000/svg"
   xmlns:sodipodi="http://sodipodi.sourceforge.net/DTD/sodipodi-0.dtd"
   xmlns:inkscape="http://www.inkscape.org/namespaces/inkscape"
   version="1.1"
   viewBox="0 0 83.606226 99.327216"
   xml:space="preserve"
   id="svg2"
   inkscape:version="0.91 r13725"
   sodipodi:docname="BusinessRule.svg"
   width="83.606224"
   height="99.327225"><metadata
     id="metadata47"><rdf:RDF><cc:Work
         rdf:about=""><dc:format>image/svg+xml</dc:format><dc:type
           rdf:resource="http://purl.org/dc/dcmitype/StillImage" /><dc:title></dc:title></cc:Work></rdf:RDF></metadata><defs
     id="defs45" /><sodipodi:namedview
     pagecolor="#ffffff"
     bordercolor="#666666"
     borderopacity="1"
     objecttolerance="10"
     gridtolerance="10"
     guidetolerance="10"
     inkscape:pageopacity="0"
     inkscape:pageshadow="2"
     inkscape:window-width="2560"
     inkscape:window-height="1384"
     id="namedview43"
     showgrid="false"
     fit-margin-top="0"
     fit-margin-left="0"
     fit-margin-right="0"
     fit-margin-bottom="0"
     inkscape:zoom="5.3400704"
     inkscape:cx="-34.65826"
     inkscape:cy="38.563688"
     inkscape:window-x="-4"
     inkscape:window-y="-4"
     inkscape:window-maximized="1"
     inkscape:current-layer="svg2" /><g
     id="document"
     transform="matrix(0.41037983,0,0,0.41040962,-61.268028,-52.79557)"
     inkscape:export-xdpi="13.881193"
     inkscape:export-ydpi="13.881193"
     style="stroke:none"><rect
       height="59.682972"
       style="fill:#ff0000;stroke:none;stroke-width:2.96323538;stroke-miterlimit:3.20000005;stroke-dasharray:none"
       width="61.992699"
       x="190.4115"
       y="193.86362"
       id="bola"
       ry="28.264057" /><path
       style="fill:#000000;fill-opacity:1;stroke:none;stroke-width:0.4934274;stroke-linecap:square;stroke-linejoin:miter;stroke-miterlimit:4;stroke-dasharray:none;stroke-opacity:1"
       d="m 75.852588,26.24446 c -3.425951,-0.625731 -6.345189,-3.306536 -7.284873,-6.68987 -0.320953,-1.155591 -0.375806,-2.539747 -0.376617,-9.50362 -7.78e-4,-6.6737052 0.03512,-7.5375691 0.33752,-8.1223473 0.21687,-0.41938 0.872878,-1.09440669 1.247821,-1.28399711 0.763255,-0.38594046 2.067132,-0.48192866 3.311717,-0.24380028 1.326743,0.25384773 1.144564,0.0844626 4.941022,4.59403119 5.571916,6.6185175 10.700162,13.0756675 12.976169,16.3387355 1.292657,1.853257 1.382575,2.08261 1.147859,2.927806 -0.129135,0.465006 -1.054673,1.449846 -1.696867,1.805593 l -0.498055,0.275899 -6.694668,0.0162 c -5.382819,0.01303 -6.835042,-0.0094 -7.411028,-0.114635 z"
       id="hojaDoblada"
       inkscape:connector-curvature="0"
       inkscape:export-xdpi="12.924805"
       inkscape:export-ydpi="12.924805"
       transform="matrix(2.2222222,0,0,2.2222222,147.222,126.87676)" /><path
       style="fill:#000000;fill-opacity:1;stroke:none;stroke-width:0.4934274;stroke-linecap:square;stroke-linejoin:miter;stroke-miterlimit:4;stroke-dasharray:none;stroke-opacity:1"
       d="m 7.6939203,110.28843 c -1.8531212,-0.39189 -3.4621841,-1.30964 -4.827005,-2.75312 -1.1466387,-1.21273 -1.807419,-2.4033 -2.30753844,-4.15765 L 0.35272395,102.65275 0.3261304,55.930515 C 0.30721709,22.701726 0.32891696,8.9820996 0.4012681,8.4251006 0.79725534,5.3765714 2.7446897,2.6552573 5.5024688,1.2967627 6.6301804,0.74124682 7.5912478,0.48118328 8.9668426,0.35930785 9.608601,0.30244908 21.137939,0.26775422 39.55655,0.26725523 L 69.116308,0.2664544 68.669515,0.71324695 C 68.42378,0.95898286 68.099246,1.4119263 67.948328,1.719788 67.676426,2.2744515 67.673659,2.2967529 67.643635,4.1747066 l -0.0303,1.8951702 -29.370062,0.02428 -29.3700621,0.02428 -0.6254233,0.2962995 C 7.4112047,6.8110749 6.8350467,7.3606891 6.4621877,8.1180733 l -0.3042968,0.6181145 0,46.6773832 0,46.677379 0.2587052,0.52659 c 0.5517659,1.12309 1.5110798,1.85038 2.6938428,2.04228 0.4152156,0.0674 12.1087811,0.0979 37.2154621,0.0973 39.812676,-0.001 37.357927,0.0318 38.284773,-0.51138 0.534957,-0.31351 1.09957,-0.92877 1.432628,-1.56115 l 0.263345,-0.50001 0.02387,-37.561123 0.02387,-37.561121 1.804255,-0.03202 1.804255,-0.03202 0.606303,-0.300403 c 0.333466,-0.16522 0.827858,-0.495335 1.098647,-0.733586 l 0.492345,-0.433186 -0.02419,38.654436 -0.02419,38.654433 -0.261062,0.84268 c -0.997037,3.21835 -3.28195,5.50436 -6.480422,6.48351 l -0.842686,0.25798 -38.01448,0.0172 c -36.422473,0.0165 -38.0481827,0.0101 -38.8192437,-0.15297 z"
       id="Contorno"
       inkscape:connector-curvature="0"
       inkscape:export-xdpi="12.924805"
       inkscape:export-ydpi="12.924805"
       transform="matrix(2.2222222,0,0,2.2222222,147.222,126.87676)" /><rect
       style="fill:#010101;fill-opacity:1;stroke:none;stroke-width:2.19301057;stroke-linecap:square;stroke-linejoin:miter;stroke-miterlimit:3.20000005;stroke-dasharray:none;stroke-opacity:1"
       id="linea"
       width="133.03111"
       height="11.191782"
       x="186.05014"
       y="276.01251"
       ry="5.5958905"
       inkscape:export-xdpi="12.924805"
       inkscape:export-ydpi="12.924805" /><rect
       style="fill:#010101;fill-opacity:1;stroke:none;stroke-width:2.19301057;stroke-linecap:square;stroke-linejoin:miter;stroke-miterlimit:3.20000005;stroke-dasharray:none;stroke-opacity:1"
       id="linea2"
       width="133.03111"
       height="11.191782"
       x="186.05014"
       y="314.65259"
       ry="5.5958862"
       inkscape:export-xdpi="12.924805"
       inkscape:export-ydpi="12.924805" /><rect
       style="fill:#010101;fill-opacity:1;stroke:none;stroke-width:2.19301057;stroke-linecap:square;stroke-linejoin:miter;stroke-miterlimit:3.20000005;stroke-dasharray:none;stroke-opacity:1"
       id="linea3"
       width="54.75898"
       height="11.191782"
       x="264.32227"
       y="198.68597"
       ry="5.595891"
       inkscape:export-xdpi="12.924805"
       inkscape:export-ydpi="12.924805" /><rect
       style="fill:#010101;fill-opacity:1;stroke:none;stroke-width:2.19301033;stroke-linecap:square;stroke-linejoin:miter;stroke-miterlimit:3.20000005;stroke-dasharray:none;stroke-opacity:1"
       id="linea4"
       width="54.75898"
       height="11.191782"
       x="264.32227"
       y="236.4281"
       ry="5.5958905"
       inkscape:export-xdpi="12.924805"
       inkscape:export-ydpi="12.924805" /></g><path
     style="opacity:0.07000002;fill:#6b4949;fill-opacity:1;fill-rule:nonzero;stroke:none;stroke-width:0.60000002;stroke-linecap:round;stroke-linejoin:miter;stroke-miterlimit:4;stroke-dasharray:none;stroke-dashoffset:0;stroke-opacity:1"
     d="m 6.1750605,0.488644 61.4412625,-0.187263 15.47225,19.792273 -0.02975,5.777214 -1.219898,33.990353 0,33.795675 -3.149565,4.32701 -8.87528,1.00531 -63.6390155,0 -4.314486,-2.03195 -1.48125704,-5.895829 0,-85.240477 3.14956604,-4.327005 z"
     id="PapyrusPath"
     inkscape:connector-curvature="0"
     sodipodi:nodetypes="cccccccccccccc" /></svg>