<?xml version="1.0" encoding="UTF-8" standalone="no"?>
<svg
   xmlns:osb="http://www.openswatchbook.org/uri/2009/osb"
   xmlns:dc="http://purl.org/dc/elements/1.1/"
   xmlns:cc="http://creativecommons.org/ns#"
   xmlns:rdf="http://www.w3.org/1999/02/22-rdf-syntax-ns#"
   xmlns:svg="http://www.w3.org/2000/svg"
   xmlns="http://www.w3.org/2000/svg"
   xmlns:sodipodi="http://sodipodi.sourceforge.net/DTD/sodipodi-0.dtd"
   xmlns:inkscape="http://www.inkscape.org/namespaces/inkscape"
   height="100"
   id="Layer_1"
   version="1.1"
   viewBox="0 0 99.999998 99.999998"
   width="100"
   xml:space="preserve"
   inkscape:version="0.91 r13725"
   sodipodi:docname="InternalInfluencer.svg"
   inkscape:export-filename="C:\Users\MA244259\Downloads\InternalInfluencer.png"
   inkscape:export-xdpi="14.540781"
   inkscape:export-ydpi="14.540781"><metadata
     id="metadata9"><rdf:RDF><cc:Work
         rdf:about=""><dc:format>image/svg+xml</dc:format><dc:type
           rdf:resource="http://purl.org/dc/dcmitype/StillImage" /><dc:title></dc:title></cc:Work></rdf:RDF></metadata><defs
     id="defs7"><linearGradient
       id="linearGradient5624"
       osb:paint="solid"><stop
         style="stop-color:#000000;stop-opacity:1;"
         offset="0"
         id="stop5626" /></linearGradient></defs><sodipodi:namedview
     pagecolor="#ffffff"
     bordercolor="#666666"
     borderopacity="1"
     objecttolerance="10"
     gridtolerance="10"
     guidetolerance="10"
     inkscape:pageopacity="0"
     inkscape:pageshadow="2"
     inkscape:window-width="2560"
     inkscape:window-height="1384"
     id="namedview5"
     showgrid="false"
     inkscape:zoom="1.2453523"
     inkscape:cx="-603.43263"
     inkscape:cy="197.40539"
     inkscape:window-x="-4"
     inkscape:window-y="-4"
     inkscape:window-maximized="1"
     inkscape:current-layer="Layer_1"
     fit-margin-top="0"
     fit-margin-left="0"
     fit-margin-right="0"
     fit-margin-bottom="0" /><path
     d="m 83.950378,83.950378 c -18.749553,18.749552 -49.150808,18.749552 -67.900361,0 -18.7506884,-18.750683 -18.7495562,-49.150808 0,-67.900361 18.749553,-18.7495562 49.149678,-18.7506884 67.900361,0 18.749552,18.749553 18.749552,49.150808 0,67.900361 z"
     style="clip-rule:evenodd;fill:#cfcfcf;fill-opacity:0.88235294;fill-rule:evenodd;stroke:#000000;stroke-width:3.99999976;stroke-miterlimit:4;stroke-dasharray:none;stroke-opacity:1"
     id="papyrusPath"
     inkscape:connector-curvature="0"
     sodipodi:nodetypes="sssss"
     inkscape:export-xdpi="14.399999"
     inkscape:export-ydpi="14.399999"
     inkscape:export-filename="C:\Users\MA244259\Downloads\InternalInfluencer.png" /><path
     style="fill:#ff0000;fill-opacity:1;stroke:none;stroke-width:1;stroke-linecap:round;stroke-linejoin:round;stroke-miterlimit:3.20000005;stroke-dasharray:none;stroke-dashoffset:0;stroke-opacity:1"
     d="m 13.896249,59.172778 -3.806811,-2.748746 0.428211,-0.348466 c 1.410322,-1.14768 6.020001,-3.795915 9.064788,-5.207672 18.44308,-8.551369 42.498424,-8.700647 61.038802,-0.378777 3.292019,1.477626 8.361688,4.336983 9.931346,5.601404 l 0.412041,0.331916 -3.364095,2.43293 c -1.85025,1.338115 -3.574004,2.578144 -3.83056,2.755623 l -0.466469,0.322689 -0.874275,-0.589697 c -7.142308,-4.817461 -15.86146,-7.83621 -25.668874,-8.887089 -2.809945,-0.30109 -10.445805,-0.255127 -13.248455,0.07975 -9.458555,1.130154 -17.77109,4.010923 -24.440528,8.470042 l -1.368312,0.914838 -3.806809,-2.748745 z"
     id="path4136"
     inkscape:connector-curvature="0"
     inkscape:export-filename="C:\Users\MA244259\Downloads\InternalInfluencer.png"
     inkscape:export-xdpi="14.399999"
     inkscape:export-ydpi="14.399999" /><path
     style="fill:#ff0000;fill-opacity:1;stroke:none;stroke-width:1;stroke-linecap:round;stroke-linejoin:round;stroke-miterlimit:3.20000005;stroke-dasharray:none;stroke-dashoffset:0;stroke-opacity:1"
     d="m 27.81652,68.76944 c -1.953961,-1.421429 -3.633467,-2.665156 -3.732233,-2.763833 -0.140706,-0.140579 0.06758,-0.343028 0.962178,-0.935259 5.56413,-3.683463 12.543455,-6.052088 20.311309,-6.893196 2.51221,-0.272023 8.350868,-0.229591 10.95403,0.07962 3.93544,0.467447 8.0903,1.437971 11.497759,2.685734 2.016863,0.738549 6.196226,2.82274 7.948308,3.963713 l 1.460736,0.951248 -3.459105,2.510256 c -1.902507,1.380641 -3.641327,2.629619 -3.864043,2.775506 l -0.40494,0.265246 -1.149347,-0.736515 c -3.523447,-2.257867 -7.958868,-3.851769 -12.695494,-4.562222 -2.204864,-0.330709 -7.585067,-0.376936 -9.695795,-0.08329 -2.291099,0.318727 -4.840313,0.895502 -6.735249,1.523894 -2.021264,0.670283 -5.137044,2.146424 -6.646178,3.148712 -0.561623,0.372997 -1.061214,0.672925 -1.110204,0.666501 -0.049,-0.0064 -1.68777,-1.174667 -3.641732,-2.5961 z"
     id="path4138"
     inkscape:connector-curvature="0"
     inkscape:export-filename="C:\Users\MA244259\Downloads\InternalInfluencer.png"
     inkscape:export-xdpi="14.399999"
     inkscape:export-ydpi="14.399999" /><path
     style="fill:#ff0000;fill-opacity:1;stroke:none;stroke-width:1;stroke-linecap:round;stroke-linejoin:round;stroke-miterlimit:3.20000005;stroke-dasharray:none;stroke-dashoffset:0;stroke-opacity:1"
     d="m 49.005751,84.710735 c -1.784285,-0.58986 -3.207262,-1.847087 -4.011163,-3.543945 -0.428748,-0.904997 -0.468435,-1.114177 -0.468435,-2.46904 0,-1.359113 0.03888,-1.562346 0.474962,-2.482987 1.308732,-2.762914 4.428791,-4.283737 7.474226,-3.643191 1.923317,0.404534 3.784277,1.851237 4.643336,3.609711 0.399865,0.818513 0.433889,1.016103 0.433889,2.51958 0,1.539179 -0.02702,1.686295 -0.477879,2.602125 -0.642791,1.305695 -1.763219,2.401506 -3.130038,3.061264 -0.991045,0.478377 -1.229351,0.531461 -2.59048,0.577061 -1.17572,0.03938 -1.682225,-0.01032 -2.348418,-0.230578 z"
     id="path4140"
     inkscape:connector-curvature="0"
     inkscape:export-filename="C:\Users\MA244259\Downloads\InternalInfluencer.png"
     inkscape:export-xdpi="14.399999"
     inkscape:export-ydpi="14.399999" /><path
     d="M 84.538478,84.165264 50.588298,98.227429 16.638108,84.165264 2.5755179,50.21466 16.638108,16.264904 50.587868,2.2023107 84.538478,16.264904 98.600648,50.215085 Z"
     style="clip-rule:evenodd;fill:none;fill-opacity:0.88235294;fill-rule:evenodd;stroke:none;stroke-width:3.99999976;stroke-miterlimit:4;stroke-dasharray:none;stroke-opacity:1"
     id="PapyrusPath"
     inkscape:connector-curvature="0"
     sodipodi:nodetypes="ccccccccc"
     inkscape:export-xdpi="14.399999"
     inkscape:export-ydpi="14.399999"
     inkscape:export-filename="C:\Users\MA244259\Downloads\InternalInfluencer.png" /></svg>