<?xml version="1.0" encoding="UTF-8" standalone="no"?>
<svg
   xmlns:dc="http://purl.org/dc/elements/1.1/"
   xmlns:cc="http://creativecommons.org/ns#"
   xmlns:rdf="http://www.w3.org/1999/02/22-rdf-syntax-ns#"
   xmlns:svg="http://www.w3.org/2000/svg"
   xmlns="http://www.w3.org/2000/svg"
   xmlns:sodipodi="http://sodipodi.sourceforge.net/DTD/sodipodi-0.dtd"
   xmlns:inkscape="http://www.inkscape.org/namespaces/inkscape"
   enable-background="new 0 0 128 128"
   height="90.853508"
   id="Layer_1"
   version="1.1"
   viewBox="0 0 98.032871 90.853507"
   width="98.03289"
   xml:space="preserve"
   inkscape:version="0.91 r13725"
   sodipodi:docname="Tactic.svg"><metadata
     id="metadata9"><rdf:RDF><cc:Work
         rdf:about=""><dc:format>image/svg+xml</dc:format><dc:type
           rdf:resource="http://purl.org/dc/dcmitype/StillImage" /><dc:title /></cc:Work></rdf:RDF></metadata><defs
     id="defs7"><inkscape:path-effect
       effect="skeletal"
       id="path-effect4262"
       is_visible="true"
       pattern="M -1.1444092e-5,0 0.99998856,0"
       copytype="single_stretched"
       prop_scale="1"
       scale_y_rel="false"
       spacing="0"
       normal_offset="0"
       tang_offset="0"
       prop_units="false"
       vertical_pattern="false"
       fuse_tolerance="0" /><inkscape:path-effect
       effect="skeletal"
       id="path-effect4253"
       is_visible="true"
       pattern="M -7.6293945e-6,0 0.99999237,0"
       copytype="single_stretched"
       prop_scale="1"
       scale_y_rel="false"
       spacing="0"
       normal_offset="0"
       tang_offset="0"
       prop_units="false"
       vertical_pattern="false"
       fuse_tolerance="0" /><inkscape:path-effect
       effect="skeletal"
       id="path-effect4249"
       is_visible="true"
       pattern="M -7.6293945e-6,0 0.99999237,0"
       copytype="single_stretched"
       prop_scale="1"
       scale_y_rel="false"
       spacing="0"
       normal_offset="0"
       tang_offset="0"
       prop_units="false"
       vertical_pattern="false"
       fuse_tolerance="0" /></defs><sodipodi:namedview
     pagecolor="#ffffff"
     bordercolor="#666666"
     borderopacity="1"
     objecttolerance="10"
     gridtolerance="10"
     guidetolerance="10"
     inkscape:pageopacity="0"
     inkscape:pageshadow="2"
     inkscape:window-width="2560"
     inkscape:window-height="1384"
     id="namedview5"
     showgrid="false"
     fit-margin-top="0"
     fit-margin-left="0"
     fit-margin-right="0"
     fit-margin-bottom="0"
     inkscape:zoom="5.6568543"
     inkscape:cx="-5.1944868"
     inkscape:cy="50.138019"
     inkscape:window-x="1596"
     inkscape:window-y="-4"
     inkscape:window-maximized="1"
     inkscape:current-layer="Layer_1"
     inkscape:snap-grids="true"
     inkscape:snap-page="false"
     inkscape:snap-text-baseline="false"
     inkscape:snap-smooth-nodes="true"
     inkscape:object-nodes="true"
     borderlayer="false" /><path
     d="M 8.8043815,29.405374 27.55305,26.807816 c 2.608532,-0.39362 4.809458,-1.889153 5.950671,-4.17187 L 41.899867,6.2633924 c 2.934561,-5.66740297 11.249218,-5.66740297 14.183771,0 l 8.314627,16.2938306 c 1.141213,2.282743 3.342139,3.778278 5.950671,4.171841 l 18.748669,2.597614 c 6.521273,0.944576 9.048271,8.579825 4.401853,12.987783 L 79.886323,55.14491 c -1.874906,1.731675 -2.690034,4.250536 -2.282483,6.769398 l 3.179139,18.025563 c 1.141212,6.218443 -5.706142,11.019995 -11.493756,8.028814 l -16.710746,-8.50113 c -2.282454,-1.180665 -5.054015,-1.180665 -7.336441,0 l -16.710774,8.50113 C 22.74362,90.881108 15.977784,86.158314 17.037496,79.939871 L 20.216645,61.914308 C 20.624137,59.474201 19.809058,56.876585 17.934189,55.14491 L 4.4025581,42.393213 C -0.32537344,37.985227 2.2831323,30.271254 8.8043815,29.405374 Z"
     id="estrella"
     inkscape:connector-curvature="0"
     style="opacity:1;fill:#ffdd55;fill-opacity:1;stroke:#817878;stroke-width:2;stroke-linecap:round;stroke-linejoin:round;stroke-miterlimit:4;stroke-dasharray:none;stroke-opacity:1"
     sodipodi:nodetypes="ccccccccccccccccccccc"
     inkscape:export-filename="C:\Users\MA244259\wsMarsR\org.eclipse.papyrus.bmm.diagram.common\icons\Tactic.png"
     inkscape:export-xdpi="14"
     inkscape:export-ydpi="14" /><path
     d="m 8.2705113,28.960022 4.7609917,-0.678247 4.76099,-0.678246 4.760991,-0.678247 4.760991,-0.678245 1.899232,-0.518987 1.681876,-0.91975 1.40242,-1.289695 1.060867,-1.628823 2.132096,-4.275025 2.132097,-4.275025 2.132096,-4.275025 2.132097,-4.2750243 3.089465,-3.329575 4.114121,-1.10985945 4.114119,1.10985945 3.089462,3.329575 2.111395,4.2544688 2.111396,4.2544705 2.111396,4.254468 2.111396,4.25447 1.060866,1.628839 1.40242,1.289697 1.681876,0.919735 1.899233,0.518954 4.76099,0.67826 4.760991,0.678262 4.76099,0.67826 4.760991,0.678262 4.156809,1.888305 2.332626,3.537673 0.205705,4.215914 -2.223957,3.923028 -3.456886,3.350148 -3.456886,3.350149 -3.456886,3.350148 -3.456885,3.350149 -1.223904,1.497775 -0.804715,1.729013 -0.370014,1.883172 0.0802,1.960251 0.807302,4.70664 0.807303,4.70664 0.807303,4.706641 0.807303,4.70664 -0.508452,4.489553 -2.689707,3.310322 -4.009323,1.506778 -4.467302,-0.921068 -4.243486,-2.219721 -4.243485,-2.219721 -4.243486,-2.219721 -4.243485,-2.219731 -1.816429,-0.693631 -1.909577,-0.231207 -1.909573,0.231207 -1.816412,0.693631 -4.243493,2.219731 -4.243492,2.219721 -4.243493,2.219721 -4.243492,2.219721 -4.455674,0.886361 -3.989924,-1.502923 -2.685823,-3.291032 -0.543373,-4.477991 0.807305,-4.70664 0.807305,-4.706641 0.807306,-4.70664 0.807305,-4.70664 0.08017,-1.925544 -0.37001,-1.887026 L 18.767988,57.35269 17.544113,55.843343 14.107924,52.513757 10.671734,49.184171 7.2355513,45.854586 3.7993632,42.525 1.5404741,38.590392 1.7500548,34.355197 4.102077,30.813657 Z"
     id="PapyrusPath"
     inkscape:connector-curvature="0"
     style="opacity:1;fill:none;fill-opacity:1;stroke:none;stroke-width:1;stroke-linecap:round;stroke-linejoin:round;stroke-miterlimit:4;stroke-dasharray:none;stroke-opacity:1"
     sodipodi:nodetypes="ccccccccccccccccccccccccccccccccccccccccccccccccccccccccccccccccccccccccccccccccc"
     inkscape:export-filename="C:\Users\MA244259\wsMarsR\org.eclipse.papyrus.bmm.diagram.common\icons\Tactic.png"
     inkscape:export-xdpi="14"
     inkscape:export-ydpi="14" /></svg>