<?xml version="1.0" encoding="UTF-8" standalone="no"?>
<svg
   xmlns:dc="http://purl.org/dc/elements/1.1/"
   xmlns:cc="http://creativecommons.org/ns#"
   xmlns:rdf="http://www.w3.org/1999/02/22-rdf-syntax-ns#"
   xmlns:svg="http://www.w3.org/2000/svg"
   xmlns="http://www.w3.org/2000/svg"
   xmlns:sodipodi="http://sodipodi.sourceforge.net/DTD/sodipodi-0.dtd"
   xmlns:inkscape="http://www.inkscape.org/namespaces/inkscape"
   height="99.309517"
   version="1.0"
   viewBox="0 0 99.892996 99.309509"
   width="99.892998"
   xml:space="preserve"
   id="svg2"
   inkscape:version="0.91 r13725"
   sodipodi:docname="Asset.svg"><metadata
     id="metadata17"><rdf:RDF><cc:Work
         rdf:about=""><dc:format>image/svg+xml</dc:format><dc:type
           rdf:resource="http://purl.org/dc/dcmitype/StillImage" /><dc:title></dc:title></cc:Work></rdf:RDF></metadata><defs
     id="defs15" /><sodipodi:namedview
     pagecolor="#ffffff"
     bordercolor="#666666"
     borderopacity="1"
     objecttolerance="10"
     gridtolerance="10"
     guidetolerance="10"
     inkscape:pageopacity="0"
     inkscape:pageshadow="2"
     inkscape:window-width="1717"
     inkscape:window-height="1212"
     id="namedview13"
     showgrid="false"
     inkscape:zoom="1.5803837"
     inkscape:cx="-104.79977"
     inkscape:cy="92.466297"
     inkscape:window-x="673"
     inkscape:window-y="0"
     inkscape:window-maximized="0"
     inkscape:current-layer="svg2"
     fit-margin-top="0"
     fit-margin-left="0"
     fit-margin-right="0"
     fit-margin-bottom="0"
     inkscape:snap-page="true" /><g
     id="g5"
     inkscape:export-xdpi="14.4"
     inkscape:export-ydpi="14.4"
     transform="matrix(1.5369958,0,0,1.5358473,-34.33686,-34.813652)"><path
       style="fill:#facb1b;stroke:#000000;stroke-width:0.66522247;stroke-opacity:1"
       d="m 75,23 c -8.402667,8.402667 -16.805333,16.805333 -25.208,25.208 -8.647648,-3.341471 -19.23968,0.414534 -23.896604,8.421137 -5.070658,8.004507 -3.273949,19.43714 4.015968,25.493914 7.160634,6.466717 19.016638,6.466717 26.177272,0 C 62.277738,76.915738 64.668546,67.770961 61.792,60.208 62.806952,59.507246 63.248,58.568773 63,57.344887 63,55.229925 63,53.114962 63,51 c 2.666667,0 5.333333,0 8,0 0,-2.666667 0,-5.333333 0,-8 2.666667,0 5.333333,0 8,0 0,-2.666667 0,-5.333333 0,-8 2.666667,0 5.333333,0 8,0 0,-4 0,-8 0,-12 -4,0 -8,0 -12,0 z M 47.595,76.204 c -1.773635,3.959587 -7.712232,3.199994 -10.849705,1.252128 -4.241269,-2.5493 -6.084042,-8.508857 -3.704107,-12.909128 1.804778,-2.469759 4.544738,-0.580544 5.954267,1.205455 2.731841,2.812367 5.636251,5.472485 8.25642,8.383373 0.36723,0.614466 0.492539,1.367927 0.343125,2.068172 z"
       id="general"
       inkscape:connector-curvature="0" /><path
       style="fill:#fbe158;stroke:#000000;stroke-width:0.66522247;stroke-opacity:1"
       d="m 87,23 c -4,0 -8,0 -12,0 -8.402667,8.402667 -16.805333,16.805333 -25.208,25.208 -8.647648,-3.341471 -19.23968,0.414534 -23.896604,8.421137 -4.881044,7.72791 -3.41948,18.676023 3.328604,24.845863 1.867333,-1.867333 3.734667,-3.734667 5.602,-5.602 -2.940637,-3.012703 -3.979639,-8.395298 -1.302,-11.84725 2.103903,-1.808201 4.208662,0.309059 5.602493,1.856743 C 40.074995,66.830995 41.023498,67.779498 41.972,68.728 56.981333,53.718 71.990667,38.708 87,23.698 87,23.465333 87,23.232667 87,23 Z"
       id="amarillo clarito"
       inkscape:connector-curvature="0" /><path
       style="fill:#f3b607"
       d="M 55,49 C 53.746279,47.326737 56.0414,46.195639 56.950569,45.049431 63.633713,38.366287 70.316856,31.683144 77,25 c 1.333333,0 2.666667,0 4,0 -8,8 -16,16 -24,24 -0.522188,0.548851 -1.477812,0.548851 -2,0 z"
       id="ranura en punta"
       inkscape:connector-curvature="0" /></g><path
     style="opacity:0.03999999;fill:none;fill-opacity:1;fill-rule:nonzero;stroke:#000000;stroke-width:0.60000002;stroke-linecap:round;stroke-linejoin:miter;stroke-miterlimit:4;stroke-dasharray:none;stroke-dashoffset:0;stroke-opacity:1"
     d="m 0.62374718,50.196176 0,-24.63331 0,-24.63331169 24.82325082,0 24.823253,0 24.823244,0 24.823252,0 0,24.63331169 0,24.63331 0,24.63331 0,24.633311 -24.823252,0 -24.823244,0 -24.823253,0 -24.82325082,0 0,-24.633311 z"
     id="PapyrusPath"
     inkscape:connector-curvature="0"
     sodipodi:nodetypes="ccccccccccccccccc" /></svg>