<?xml version="1.0" encoding="UTF-8" standalone="no"?>
<svg
   xmlns:dc="http://purl.org/dc/elements/1.1/"
   xmlns:cc="http://creativecommons.org/ns#"
   xmlns:rdf="http://www.w3.org/1999/02/22-rdf-syntax-ns#"
   xmlns:svg="http://www.w3.org/2000/svg"
   xmlns="http://www.w3.org/2000/svg"
   xmlns:sodipodi="http://sodipodi.sourceforge.net/DTD/sodipodi-0.dtd"
   xmlns:inkscape="http://www.inkscape.org/namespaces/inkscape"
   enable-background="new 0 0 512 512"
   id="Layer_1"
   version="1.1"
   viewBox="0 0 79.338225 98.238183"
   xml:space="preserve"
   inkscape:version="0.91 r13725"
   sodipodi:docname="Strategy.svg"
   width="79.338226"
   height="98.238205"><metadata
     id="metadata9"><rdf:RDF><cc:Work
         rdf:about=""><dc:format>image/svg+xml</dc:format><dc:type
           rdf:resource="http://purl.org/dc/dcmitype/StillImage" /><dc:title></dc:title></cc:Work></rdf:RDF></metadata><defs
     id="defs7" /><sodipodi:namedview
     pagecolor="#ffffff"
     bordercolor="#666666"
     borderopacity="1"
     objecttolerance="10"
     gridtolerance="10"
     guidetolerance="10"
     inkscape:pageopacity="0"
     inkscape:pageshadow="2"
     inkscape:window-width="2560"
     inkscape:window-height="1384"
     id="namedview5"
     showgrid="true"
     inkscape:zoom="7.375"
     inkscape:cx="84.322717"
     inkscape:cy="73.226349"
     inkscape:window-x="-4"
     inkscape:window-y="-4"
     inkscape:window-maximized="1"
     inkscape:current-layer="Layer_1"
     fit-margin-top="0"
     fit-margin-left="0"
     fit-margin-right="0"
     fit-margin-bottom="0"
     showguides="true"
     inkscape:snap-grids="false"
     inkscape:snap-bbox="true"><inkscape:grid
       type="xygrid"
       id="grid4140"
       originx="3.1709315e-009"
       originy="0.013500416" /></sodipodi:namedview><path
     d="m 68.66115,0.01349411 -58.9840807,0 C 4.3585259,0.01349411 0,4.4296198 0,9.8057702 L 0,88.432016 c 0,5.376149 4.3585259,9.79227 9.6770693,9.79227 4.8577457,0.25119 14.1124007,-2.923474 26.6503657,-7.632055 2.265661,-0.844442 4.185717,-0.310198 5.472156,0.16988 13.920387,5.197436 23.923876,7.629154 26.861559,7.462175 5.318553,0 9.677078,-4.396921 9.677078,-9.79227 l 0,-78.6262458 c 0,-5.3761503 -4.358525,-9.79227609 -9.677078,-9.79227609 z"
     id="FondoNegro"
     inkscape:connector-curvature="0"
     style="fill:#303a3f"
     sodipodi:nodetypes="ssssccccsss"
     inkscape:export-filename="C:\Users\MA244259\wsMarsR\org.eclipse.papyrus.bmm.diagram.common\icons\Strategy.png"
     inkscape:export-xdpi="14"
     inkscape:export-ydpi="14" /><path
     d="m 26.372895,17.024302 6.278807,-0.87199 c 0.873581,-0.132136 1.610655,-0.634176 1.992841,-1.400484 l 2.811814,-5.4961948 c 0.982765,-1.9025285 3.767286,-1.9025285 4.75005,0 l 2.784512,5.4697738 c 0.382185,0.766306 1.119259,1.268354 1.99284,1.400472 l 6.278808,0.872003 c 2.183933,0.317089 3.03021,2.880218 1.474151,4.359953 l -4.558948,4.307124 c -0.627893,0.581324 -0.900875,1.426892 -0.764388,2.272462 l 1.064672,6.051107 c 0.382184,2.087507 -1.91095,3.699369 -3.849186,2.695242 l -5.596316,-2.853797 c -0.76438,-0.396343 -1.692557,-0.396343 -2.456925,0 l -5.596328,2.853797 c -1.938243,0.97769 -4.204075,-0.607735 -3.849185,-2.695242 l 1.064673,-6.051107 c 0.136466,-0.819135 -0.136497,-1.691138 -0.764379,-2.272462 l -4.531655,-4.28069 C 23.3154,19.90452 24.188972,17.314971 26.372895,17.024302 Z m 40.805785,46.85689 c 0,1.536044 -1.267243,2.803285 -2.803287,2.803285 l -51.03505,0 c -1.536044,0 -2.803277,-1.267241 -2.803277,-2.803285 l 0,-0.883222 c 0,-1.536043 1.267233,-2.803275 2.803277,-2.803275 l 51.03505,0 c 1.536044,0 2.803287,1.267232 2.803287,2.803275 z m 0,-12.78756 c 0,1.536044 -1.267243,2.803275 -2.803287,2.803275 l -51.03505,0 c -1.536044,0 -2.803277,-1.267231 -2.803277,-2.803275 l 0,-0.883221 c 0,-1.536045 1.267233,-2.803284 2.803277,-2.803284 l 51.03505,0 c 1.536044,0 2.803287,1.267239 2.803287,2.803284 z"
     id="estrellaYLineas"
     inkscape:connector-curvature="0"
     style="opacity:1;fill:#ffdd55;fill-opacity:1"
     sodipodi:nodetypes="cccccccccccccccccccccssssssssssssssssss"
     inkscape:export-filename="C:\Users\MA244259\wsMarsR\org.eclipse.papyrus.bmm.diagram.common\icons\Strategy.png"
     inkscape:export-xdpi="14"
     inkscape:export-ydpi="14" /><path
     d="m 68.66115,0.02736134 -14.74602,0 -14.74602,0 -14.74602,0 -14.7460199,0 L 5.921267,0.80138331 2.8440811,2.9074433 0.764122,6.0215313 0,9.8196375 0,29.476199 l 0,19.656562 0,19.656563 0,19.65656 0.764122,3.7981 2.0799591,3.11409 3.0771859,2.10606 3.7558031,0.77402 4.4503289,-0.42439 5.994771,-1.53172 7.434812,-2.46168 8.770453,-3.21427 1.629945,-0.39721 1.473341,-0.0145 1.289738,0.23381 1.079132,0.34782 9.65667,3.38212 7.892623,2.36063 5.833367,1.3548 3.478899,0.36463 3.755808,-0.77132 3.077188,-2.10156 2.07996,-3.11319 0.764122,-3.8062 0,-19.65656 0,-19.656563 0,-19.656562 0,-19.6565615 -0.764122,-3.7981062 -2.07996,-3.114088 -3.077188,-2.10605999 z"
     id="PapyrusPath"
     inkscape:connector-curvature="0"
     style="fill:none"
     sodipodi:nodetypes="ccccccccccccccccccccccccccccccccccccccccc"
     inkscape:export-filename="C:\Users\MA244259\wsMarsR\org.eclipse.papyrus.bmm.diagram.common\icons\Strategy.png"
     inkscape:export-xdpi="14"
     inkscape:export-ydpi="14" /></svg>