<?xml version="1.0" encoding="UTF-8" standalone="no"?>
<svg
   xmlns:osb="http://www.openswatchbook.org/uri/2009/osb"
   xmlns:dc="http://purl.org/dc/elements/1.1/"
   xmlns:cc="http://creativecommons.org/ns#"
   xmlns:rdf="http://www.w3.org/1999/02/22-rdf-syntax-ns#"
   xmlns:svg="http://www.w3.org/2000/svg"
   xmlns="http://www.w3.org/2000/svg"
   xmlns:sodipodi="http://sodipodi.sourceforge.net/DTD/sodipodi-0.dtd"
   xmlns:inkscape="http://www.inkscape.org/namespaces/inkscape"
   enable-background="new 0 0 24 24"
   height="99.987846"
   id="Layer_1"
   version="1.1"
   viewBox="0 0 97.948449 99.987845"
   width="97.948448"
   xml:space="preserve"
   inkscape:version="0.91 r13725"
   sodipodi:docname="PotentialReward.svg"><metadata
     id="metadata15"><rdf:RDF><cc:Work
         rdf:about=""><dc:format>image/svg+xml</dc:format><dc:type
           rdf:resource="http://purl.org/dc/dcmitype/StillImage" /><dc:title></dc:title></cc:Work></rdf:RDF></metadata><defs
     id="defs13"><linearGradient
       id="linearGradient4173"
       osb:paint="solid"><stop
         style="stop-color:#000000;stop-opacity:1;"
         offset="0"
         id="stop4175" /></linearGradient></defs><sodipodi:namedview
     pagecolor="#ffffff"
     bordercolor="#666666"
     borderopacity="1"
     objecttolerance="10"
     gridtolerance="10"
     guidetolerance="10"
     inkscape:pageopacity="0"
     inkscape:pageshadow="2"
     inkscape:window-width="1897"
     inkscape:window-height="954"
     id="namedview11"
     showgrid="false"
     inkscape:zoom="3.4766084"
     inkscape:cx="-34.169366"
     inkscape:cy="54.713938"
     inkscape:window-x="291"
     inkscape:window-y="153"
     inkscape:window-maximized="0"
     inkscape:current-layer="Layer_1"
     fit-margin-top="0"
     fit-margin-left="0"
     fit-margin-right="0"
     fit-margin-bottom="0" /><g
     id="g4158"
     transform="matrix(4.3648178,0,0,4.1640417,-3.4525709,0.05084612)"><path
       inkscape:connector-curvature="0"
       d="m 22.793,4.936 -2.869,0 C 21.018,3.85 21.457,2.605 20.985,1.533 20.557,0.559 19.489,0.001 18.055,0.001 c -0.996,0 -2.15,0.263 -3.24,0.743 C 13.674,1.245 12.682,1.939 12.002,2.702 11.324,1.939 10.33,1.245 9.193,0.744 8.098,0.264 6.945,0 5.949,0 4.512,0 3.443,0.558 3.02,1.53 2.547,2.604 2.986,3.85 4.078,4.934 l -2.871,0 c -0.229,0 -0.416,0.185 -0.416,0.416 l 0,5.024 c 0,0.227 0.188,0.414 0.416,0.414 l 1.449,0 8.543,0 0,-5.852 0.195,0 1.215,0 0.191,0 0,5.851 8.547,0 0,0 1.445,0 c 0.23,0 0.416,-0.186 0.416,-0.413 l 0,-5.024 C 23.211,5.12 23.025,4.936 22.793,4.936 Z M 9.865,4.859 C 9.219,4.859 8.4,4.665 7.627,4.324 6.242,3.719 5.533,2.931 5.361,2.561 5.472,2.526 5.658,2.489 5.949,2.489 c 0.648,0 1.469,0.194 2.242,0.535 1.383,0.604 2.09,1.393 2.266,1.764 -0.109,0.034 -0.297,0.071 -0.592,0.071 z m 6.514,-0.535 c -0.777,0.341 -1.594,0.535 -2.238,0.535 -0.297,0 -0.484,-0.037 -0.59,-0.072 0.172,-0.37 0.875,-1.159 2.26,-1.764 0.777,-0.341 1.592,-0.535 2.244,-0.535 0.293,0 0.479,0.037 0.59,0.072 -0.172,0.371 -0.883,1.159 -2.266,1.764 z"
       id="path5"
       style="fill:#333333" /><path
       inkscape:connector-curvature="0"
       d="m 12.801,12.4 0,11.6 8.133,0 c 0.229,0 0.414,-0.185 0.414,-0.416 l 0,-11.184 -8.547,0 z"
       id="path7"
       style="fill:#008080" /><path
       inkscape:connector-curvature="0"
       d="m 2.656,12.4 0,11.184 C 2.656,23.815 2.84,24 3.07,24 l 8.324,0 0,-11.6 -8.738,0 z"
       id="path9"
       style="fill:#008080" /></g><path
     style="opacity:0.16000001;fill:none;fill-opacity:1;fill-rule:nonzero;stroke:none;stroke-width:1;stroke-linecap:square;stroke-linejoin:miter;stroke-miterlimit:0;stroke-dasharray:none;stroke-dashoffset:0;stroke-opacity:1"
     d="m 0.28763667,0.46556383 24.37720733,0 24.377206,0 24.377207,0 24.377207,0 0,25.02438917 0,25.024389 0,25.024389 0,25.024389 -24.377207,0 -24.377207,0 -24.377206,0 -24.37720733,0 0,-25.024389 0,-25.024389 0,-25.024389 z"
     id="PapyrusPath"
     inkscape:connector-curvature="0"
     sodipodi:nodetypes="ccccccccccccccccc" /></svg>